<?xml version="1.0" standalone="no"?><!DOCTYPE svg PUBLIC "-//W3C//DTD SVG 1.1//EN" "http://www.w3.org/Graphics/SVG/1.1/DTD/svg11.dtd"><svg t="1763050845044" class="icon" viewBox="0 0 1024 1024" version="1.1" xmlns="http://www.w3.org/2000/svg" p-id="1612" xmlns:xlink="http://www.w3.org/1999/xlink" width="200" height="200"><path d="M336.64 686.08a40.8064 40.8064 0 0 1-27.136-10.2912L102.4 491.7248l218.5728-194.304A40.96 40.96 0 0 1 375.296 358.6048l-149.7088 133.12 138.24 122.88a40.96 40.96 0 0 1-27.1872 71.4752z m366.0288-0.0512l218.5216-194.304-207.0528-184.064a40.8576 40.8576 0 1 0-54.3232 61.184l138.24 122.88-149.76 133.0688a40.96 40.96 0 0 0 54.3744 61.2352zM511.232 743.936l81.8176-491.008a40.96 40.96 0 1 0-80.6912-13.4656l-81.8176 491.008a40.96 40.96 0 1 0 80.6912 13.4656z" fill="#666666" p-id="1613"></path></svg>